<?xml version="1.0" standalone="no"?>
<!DOCTYPE svg PUBLIC "-//W3C//DTD SVG 20010904//EN"
 "http://www.w3.org/TR/2001/REC-SVG-20010904/DTD/svg10.dtd">
<svg version="1.0" xmlns="http://www.w3.org/2000/svg"
 width="304.000000pt" height="300.000000pt" viewBox="0 0 304.000000 300.000000"
 preserveAspectRatio="xMidYMid meet">

<g transform="translate(0.000000,300.000000) scale(0.100000,-0.100000)"
 fill="#000000" stroke="none">
<path d="M1146 2518 c-99 -178 -239 -429 -312 -559 -74 -129 -134 -240 -134
 -247 0 -9 54 -12 213 -12 116 0 217 4 224 8 8 5 -19 24 -75 54 -50 27 -86 52
 -84 59 6 22 417 769 423 769 8 0 199 -354 199 -369 0 -7 -27 -11 -74 -11 -107
 0 -170 -23 -233 -86 -40 -40 -55 -64 -69 -109 -38 -134 22 -272 146 -329 41
 -19 68 -21 315 -26 258 -5 272 -6 318 -28 107 -53 130 -190 45 -269 -53 -50
 -75 -53 -408 -53 -170 0 -310 -2 -310 -5 0 -3 28 -44 62 -90 70 -97 41 -87
 268 -89 247 -2 360 8 422 36 73 34 137 98 173 174 36 76 40 181 10 263 -24 64
 -89 141 -151 177 -89 52 -121 57 -401 63 -245 6 -263 7 -290 27 -22 17 -29 30
 -31 65 -2 37 1 49 23 69 26 24 31 25 168 25 l141 0 41 -70 c41 -69 42 -70 91
 -77 27 -3 73 -7 102 -7 l53 -1 -36 68 c-19 38 -35 74 -35 80 0 8 19 12 54 12
 l55 0 61 88 61 87 -173 3 -174 2 -171 313 -171 312 -79 3 -79 3 -178 -323z"/>
<path d="M1103 1549 c-269 -45 -465 -304 -425 -563 31 -200 182 -360 383 -410
 48 -12 113 -16 242 -16 l177 0 0 94 0 94 -197 4 c-193 3 -199 4 -250 30 -64
 34 -111 82 -143 145 -21 39 -25 63 -25 128 0 68 5 88 28 132 36 69 88 120 156
 152 56 26 57 26 373 31 l317 5 33 30 c76 69 148 140 148 147 0 11 -752 8 -817
 -3z"/>
<path d="M1510 594 l0 -466 28 24 c15 13 58 56 96 95 l68 72 1 80 c2 77 4 82
 37 116 18 19 37 35 41 35 4 0 92 -91 196 -202 103 -112 192 -206 198 -210 5
 -4 66 -8 134 -8 l125 0 -99 103 c-317 327 -382 395 -405 420 l-25 28 195 189
 195 189 -135 -1 -135 0 -155 -163 c-85 -90 -158 -164 -162 -164 -5 -1 -8 73
 -8 164 l0 165 -95 0 -95 0 0 -466z"/>
</g>
</svg>
